<svg width="156" height="127" viewBox="0 0 156 127" fill="none" xmlns="http://www.w3.org/2000/svg">
<path d="M45.3014 31.6596C35.3849 32.7001 25.5628 34.6751 16.0194 37.549C8.60274 39.7852 2.70244 42.3806 2.32637 50.9978L2.31861 50.9987C1.9032 60.5572 3.97033 70.7435 6.12374 80.0059C7.20453 84.4004 8.59304 89.0014 11.8423 92.319C14.602 95.1355 18.3567 96.4265 22.102 97.3584C28.6206 106.503 37.0116 114.122 46.7263 119.798C47.6076 120.317 48.3866 119.22 48.151 118.436C46.4811 112.906 45.3968 107.245 44.8827 101.521C48.0325 101.806 51.1554 101.915 54.1906 101.77C64.9663 101.25 69.8035 92.2261 71.3769 82.6306C73.0767 72.2042 73.6297 57.878 71.2654 47.7166C70.1311 42.8331 67.7214 38.2163 63.6354 35.2001C58.3346 31.2901 51.6094 31.0065 45.3014 31.6596ZM18.8627 59.825C17.998 57.266 21.9116 55.6981 22.7784 58.2715C24.8636 64.4451 27.2032 71.7081 33.1438 75.2335C39.1323 78.7835 46.8919 76.728 50.9693 71.3115C52.599 69.1465 55.8775 71.778 54.2478 73.943C49.5815 80.1437 41.0575 82.8759 33.69 80.1515C25.1111 76.975 21.558 67.8061 18.8627 59.825ZM45.0358 54.8457C46.1749 54.7735 47.2255 55.5357 47.3536 56.7061L47.5369 58.3806C47.6567 59.4769 46.8081 60.627 45.6765 60.6984C44.5376 60.7706 43.487 60.0083 43.3588 58.838L43.1754 57.1635C43.0555 56.0671 43.9042 54.9171 45.0358 54.8457ZM33.3168 56.1286C34.4558 56.0564 35.5064 56.8186 35.6346 57.989L35.8179 59.6635C35.9377 60.7597 35.089 61.9098 33.9575 61.9813C32.8185 62.0535 31.768 61.2912 31.6397 60.1209L31.4564 58.4463C31.3364 57.35 32.1851 56.2 33.3168 56.1286Z" fill="#00B783"/>
<g filter="url(#filter0_d_754_3505)">
<path d="M90.3584 4.0022C103.738 3.9422 117.128 5.14231 130.278 7.58228C140.498 9.48228 148.749 12.0827 150.509 23.5227H150.519C152.469 36.2127 151.199 50.1027 149.679 62.7727C148.879 68.7926 147.699 75.1325 143.849 80.0325C140.579 84.1925 135.758 86.4622 130.898 88.2522C123.538 101.402 113.458 112.792 101.328 121.782C100.228 122.602 99.0285 121.252 99.2285 120.172C100.648 112.552 101.268 104.843 101.118 97.1331C96.9583 97.973 92.8081 98.5725 88.7383 98.8225C74.2886 99.7023 66.5186 88.3728 63.0186 75.803C59.2286 62.143 56.3984 43.1122 58.0684 29.2122C58.8684 22.5323 61.409 16.0225 66.4189 11.4026C72.9189 5.41279 81.8485 4.05221 90.3584 4.0022ZM129.738 37.7122C130.518 34.1725 125.068 32.6526 124.288 36.2122C122.408 44.7522 120.348 54.7828 112.938 60.3528C105.469 65.9626 94.8189 64.3525 88.5889 57.7229C86.0989 55.0729 82.1088 59.0622 84.5986 61.7122C91.7286 69.3022 103.499 71.7024 112.929 66.9924C123.909 61.5024 127.308 48.7521 129.738 37.7122ZM94.0986 34.8928C92.5688 34.9628 91.2786 36.1324 91.2783 37.7122V39.9729C91.2785 41.4528 92.5787 42.8622 94.0986 42.7922C95.6284 42.7221 96.9178 41.5527 96.918 39.9729V37.7122C96.9177 36.2324 95.6184 34.823 94.0986 34.8928ZM109.919 34.8928C108.389 34.9628 107.099 36.1324 107.099 37.7122V39.9729C107.099 41.4528 108.399 42.8622 109.919 42.7922C111.449 42.722 112.738 41.5526 112.738 39.9729V37.7122C112.738 36.2325 111.439 34.8231 109.919 34.8928Z" fill="#00DFA0"/>
</g>
<defs>
<filter id="filter0_d_754_3505" x="53.5781" y="0" width="101.933" height="126.035" filterUnits="userSpaceOnUse" color-interpolation-filters="sRGB">
<feFlood flood-opacity="0" result="BackgroundImageFix"/>
<feColorMatrix in="SourceAlpha" type="matrix" values="0 0 0 0 0 0 0 0 0 0 0 0 0 0 0 0 0 0 127 0" result="hardAlpha"/>
<feOffset/>
<feGaussianBlur stdDeviation="2"/>
<feComposite in2="hardAlpha" operator="out"/>
<feColorMatrix type="matrix" values="0 0 0 0 0 0 0 0 0 0 0 0 0 0 0 0 0 0 0.1 0"/>
<feBlend mode="normal" in2="BackgroundImageFix" result="effect1_dropShadow_754_3505"/>
<feBlend mode="normal" in="SourceGraphic" in2="effect1_dropShadow_754_3505" result="shape"/>
</filter>
</defs>
</svg>
